# Blender 4.1.1
# www.blender.org
mtllib Card3.mtl
o Cube.001
v -1.470000 -2.180000 0.010000
v -1.470000 2.180000 0.010000
v 1.470000 -2.180000 0.010000
v 1.470000 2.180000 0.010000
v -1.470000 -2.180000 -0.010000
v -1.470000 2.180000 -0.010000
v 1.470000 -2.180000 -0.010000
v 1.470000 2.180000 -0.010000
vn -0.0000 -1.0000 -0.0000
vn 1.0000 -0.0000 -0.0000
vn -0.0000 -0.0000 -1.0000
vn -0.0000 1.0000 -0.0000
vn -0.0000 -0.0000 1.0000
vn -1.0000 -0.0000 -0.0000
vt 0.000000 0.333333
vt 0.333333 0.000000
vt 0.333333 0.333333
vt 0.333333 0.666667
vt 0.000000 0.666667
vt 0.666667 0.333333
vt 0.666667 0.666667
vt 0.333333 1.000000
vt 0.000000 1.000000
vt 0.666667 1.000000
vt 0.000000 0.000000
vt 0.666667 0.000000
s 0
usemtl Material.001
f 5/1/1 3/2/1 1/3/1
f 3/1/2 8/4/2 4/5/2
f 7/2/3 6/6/3 8/3/3
f 2/4/4 8/6/4 6/7/4
f 1/5/5 4/8/5 2/9/5
f 5/4/6 2/10/6 6/8/6
f 5/1/1 7/11/1 3/2/1
f 3/1/2 7/3/2 8/4/2
f 7/2/3 5/12/3 6/6/3
f 2/4/4 4/3/4 8/6/4
f 1/5/5 3/4/5 4/8/5
f 5/4/6 1/7/6 2/10/6
